<svg width="924" height="264" viewBox="0 0 924 264" fill="none" xmlns="http://www.w3.org/2000/svg">
<g clip-path="url(#clip0_699_1006)">
<path d="M263.313 131.337C263.369 157.398 255.72 182.875 241.285 204.57C226.849 226.265 206.323 243.203 182.264 253.216C158.205 263.229 131.726 265.899 106.165 260.837C80.6046 255.803 57.102 243.287 38.6615 224.874C20.221 206.489 7.64922 183.014 2.5593 157.481C-2.55842 131.921 0.0282528 105.442 9.98557 81.3552C19.9429 57.2685 36.8258 36.6864 58.4649 22.2232C80.1318 7.73227 105.609 4.89272e-05 131.671 4.89272e-05C148.943 -0.0277648 166.048 3.3377 182.014 9.92955C197.979 16.5214 212.497 26.1728 224.708 38.383C236.946 50.5932 246.653 65.0564 253.272 81.0214C259.892 96.9587 263.313 114.064 263.313 131.337ZM146.773 45.6146C141.85 45.1417 136.788 44.9749 131.643 44.9749C126.497 44.9749 121.546 45.1695 116.596 45.6146V115.65H146.773V45.6146ZM216.447 86.4173C205.433 82.8015 194.196 79.9923 182.792 77.9619V136.732C182.792 179.065 164.797 201.344 131.698 201.344C98.6001 201.344 80.6046 179.065 80.6046 136.732V77.9898C69.201 80.0202 57.9643 82.8572 46.95 86.4451V137.122C47.6732 159.122 56.9352 179.955 72.7334 195.252C88.5594 210.55 109.698 219.117 131.698 219.117C153.699 219.117 174.838 210.55 190.664 195.252C206.49 179.955 215.724 159.095 216.447 137.122V86.4173Z" fill="#7000FF"/>
<path d="M688.89 135.759C688.89 152.836 679.239 160.708 664.887 160.708C650.535 160.708 641.246 152.976 641.246 135.759V79.4082H610.289V136.844C610.289 174.281 641.607 188.939 665.138 188.939C688.668 188.939 720.014 174.281 720.014 136.844V79.4082H689.057L688.89 135.759Z" fill="#7000FF"/>
<path d="M584.088 105.553V79.3805H483.458V105.553H543.008L481.039 160.791V186.964H587.815V160.791H522.203L584.088 105.553Z" fill="#7000FF"/>
<path d="M875.02 77.35C855.384 77.35 840.615 85.3325 833.299 97.4871C825.845 85.3325 809.602 77.35 792.775 77.35C759.677 77.35 742.46 98.4328 742.46 124.494V186.964H773.417V128.889C773.417 116.428 779.953 105.47 794.972 105.47C798.032 105.275 801.091 105.748 803.956 106.86C806.821 107.945 809.435 109.642 811.577 111.811C813.746 113.981 815.415 116.595 816.5 119.46C817.585 122.325 818.03 125.384 817.835 128.472V186.992H848.792V128.444C848.792 115.955 856.135 105.442 871.015 105.442C885.867 105.442 893.043 116.4 893.043 128.861V186.908H924V124.55C924 98.5162 908.007 77.4056 874.742 77.4056L875.02 77.35Z" fill="#7000FF"/>
<path d="M429.694 135.759C429.694 152.836 420.071 160.708 405.802 160.708C391.562 160.708 382.049 152.976 382.049 135.759V79.4082H351.093V136.844C351.093 174.281 382.3 188.939 405.941 188.939C429.583 188.939 460.707 174.281 460.707 136.844V79.4082H429.75L429.694 135.759Z" fill="#7000FF"/>
</g>
<defs>
<clipPath id="clip0_699_1006">
<rect width="924" height="263.313" fill="white"/>
</clipPath>
</defs>
</svg>
